<?xml version="1.0" standalone="no"?>
<!DOCTYPE svg PUBLIC "-//W3C//DTD SVG 20010904//EN"
 "http://www.w3.org/TR/2001/REC-SVG-20010904/DTD/svg10.dtd">
<svg version="1.0" xmlns="http://www.w3.org/2000/svg"
 width="500.000000pt" height="500.000000pt" viewBox="0 0 500.000000 500.000000"
 preserveAspectRatio="xMidYMid meet">

<g transform="translate(0.000000,500.000000) scale(0.100000,-0.100000)"
fill="#000000" stroke="none">
<path d="M2451 3600 c-101 -27 -194 -81 -272 -159 -79 -80 -132 -171 -159
-276 -30 -118 -34 -111 68 -124 278 -36 416 -95 578 -248 54 -51 174 -188 174
-201 1 -4 16 -24 35 -46 l34 -38 35 22 c93 57 198 212 229 336 17 66 27 151
19 158 -13 13 -42 -17 -42 -44 0 -54 -22 -135 -55 -205 -36 -74 -89 -145 -108
-145 -12 0 -87 101 -87 118 0 5 -18 30 -40 55 -22 25 -40 51 -40 58 0 15 61
90 125 152 51 50 135 111 193 141 17 9 32 24 32 34 0 30 -58 142 -105 201 -55
70 -101 108 -187 156 -131 72 -286 91 -427 55z m255 -41 c108 -20 198 -70 286
-159 43 -44 78 -87 78 -97 0 -11 -18 -27 -46 -42 -72 -38 -205 -143 -251 -197
-75 -89 -80 -94 -95 -94 -8 0 -23 9 -32 19 -16 17 -16 22 -3 43 8 12 17 35 21
50 5 22 2 27 -16 30 -37 6 -86 -21 -81 -43 7 -24 -16 -25 -57 -4 -35 18 -38
31 -10 40 11 3 20 13 20 22 0 9 6 13 15 9 17 -6 38 27 32 52 -3 13 -7 10 -15
-11 -13 -30 -32 -28 -32 2 0 43 -55 56 -99 23 -23 -16 -31 -31 -31 -52 0 -17
-2 -30 -3 -30 -2 0 -46 9 -98 20 -52 10 -120 22 -152 26 -32 4 -60 11 -63 15
-6 10 50 122 85 169 49 66 116 121 199 161 112 56 224 71 348 48z m-232 -385
c9 -8 16 -22 16 -29 0 -13 -26 -45 -36 -45 -14 0 -42 21 -48 36 -7 19 19 54
40 54 7 0 20 -7 28 -16z m156 -114 c0 -13 -7 -20 -20 -20 -19 0 -27 20 -13 33
13 14 33 6 33 -13z"/>
<path d="M2028 2893 c7 -3 16 -2 19 1 4 3 -2 6 -13 5 -11 0 -14 -3 -6 -6z"/>
<path d="M2024 2853 c17 -74 86 -190 155 -259 120 -121 234 -168 411 -169 132
0 178 8 160 29 -6 8 -23 17 -38 21 -15 4 -41 17 -59 31 -17 13 -34 20 -38 15
-3 -6 -17 -6 -35 -1 -18 5 -32 5 -36 -1 -4 -6 -13 -4 -23 6 -10 8 -37 17 -61
20 -23 2 -50 11 -59 19 -10 9 -31 18 -48 20 -38 4 -53 13 -53 32 0 8 -8 14
-17 14 -10 0 -27 14 -38 30 -11 16 -24 30 -30 30 -5 0 -18 14 -27 30 -9 16
-31 38 -49 49 -30 18 -46 39 -68 89 -6 13 -19 22 -32 22 -18 0 -20 -4 -15 -27z"/>
<path d="M2526 2247 c-55 -17 -81 -56 -80 -121 0 -68 22 -101 75 -117 32 -10
50 -10 86 -1 33 9 49 10 59 1 24 -19 34 1 34 67 l0 65 -62 -3 c-70 -3 -88 -22
-39 -39 38 -13 39 -26 5 -39 -18 -7 -34 -7 -52 2 -23 11 -27 21 -30 61 -2 27
2 55 9 63 16 19 88 19 95 -1 8 -20 74 -21 74 0 0 21 -39 54 -79 65 -43 12 -45
12 -95 -3z"/>
<path d="M2842 2250 c-64 -15 -100 -76 -87 -149 13 -81 115 -126 197 -87 45
22 63 56 62 122 0 63 -26 98 -83 114 -40 11 -43 11 -89 0z m87 -64 c7 -8 11
-36 9 -62 -2 -40 -7 -51 -29 -63 -24 -13 -29 -13 -53 2 -22 15 -26 25 -26 65
0 27 5 53 12 60 17 17 73 15 87 -2z"/>
<path d="M1688 2198 c-8 -77 5 -148 31 -170 45 -36 137 -35 183 1 21 17 23 29
26 120 l4 101 -36 0 -36 0 0 -85 c0 -77 -2 -86 -23 -99 -29 -19 -66 -10 -72
18 -3 11 -6 53 -7 91 l-3 70 -31 3 c-31 3 -31 2 -36 -50z"/>
<path d="M1995 2228 c-2 -13 -1 -68 3 -123 7 -98 7 -100 32 -100 23 0 25 4 28
53 2 31 8 52 15 52 6 0 35 -25 63 -56 40 -42 57 -55 75 -52 24 3 24 5 27 126
l3 122 -29 0 c-28 0 -30 -3 -35 -51 -4 -29 -9 -54 -12 -57 -3 -3 -28 20 -56
51 -40 45 -57 57 -80 57 -22 0 -30 -5 -34 -22z"/>
<path d="M2317 2243 c-4 -3 -7 -57 -7 -119 0 -112 0 -114 24 -120 14 -3 29 -3
35 0 12 8 25 166 17 211 -6 30 -11 35 -35 35 -15 0 -31 -3 -34 -7z"/>
<path d="M3077 2243 c-4 -3 -7 -57 -7 -119 l0 -112 58 -6 c81 -9 147 4 147 29
0 17 -8 20 -61 23 -60 3 -62 4 -68 34 -3 17 -6 59 -6 94 0 64 0 64 -28 64 -16
0 -32 -3 -35 -7z"/>
<path d="M3320 2132 l0 -119 36 -6 c53 -9 125 3 156 25 38 26 55 86 40 136
-19 64 -41 77 -143 80 l-89 4 0 -120z m144 55 c22 -16 26 -88 6 -112 -17 -20
-66 -19 -74 1 -3 9 -6 33 -6 54 0 21 3 45 6 54 7 19 44 21 68 3z"/>
<path d="M2008 1729 c-15 -8 -18 -26 -18 -117 0 -59 4 -113 9 -120 5 -8 21
-12 37 -10 26 3 29 7 34 48 l5 45 50 5 c42 4 50 8 50 25 0 17 -8 20 -52 23
-49 3 -53 5 -53 28 0 23 3 24 60 24 46 0 62 4 67 16 3 8 1 20 -5 26 -15 15
-163 21 -184 7z"/>
<path d="M2303 1724 c-45 -19 -65 -55 -65 -114 0 -60 21 -96 67 -116 45 -18
89 -18 131 2 42 20 64 59 64 114 0 59 -22 95 -70 114 -48 19 -84 19 -127 0z
m116 -78 c25 -54 -7 -115 -61 -116 -21 0 -48 43 -48 76 0 57 15 76 58 72 29
-2 40 -9 51 -32z"/>
<path d="M2613 1725 c-44 -19 -67 -58 -67 -115 0 -58 23 -96 69 -116 102 -42
195 15 195 120 0 52 -19 85 -62 107 -43 22 -90 24 -135 4z m105 -57 c7 -7 12
-33 12 -59 0 -38 -5 -51 -22 -63 -30 -21 -44 -20 -68 4 -22 22 -27 78 -10 111
12 22 68 27 88 7z"/>
<path d="M2892 1733 c-22 -4 -23 -6 -20 -126 l3 -122 60 0 c122 1 165 33 165
122 0 61 -18 96 -58 111 -32 12 -117 20 -150 15z m117 -66 c39 -48 15 -127
-39 -127 l-30 0 0 70 0 70 29 0 c16 0 34 -6 40 -13z"/>
<path d="M3200 1727 c-79 -37 -60 -123 30 -142 56 -12 73 -24 59 -41 -16 -20
-52 -17 -71 5 -9 11 -25 18 -35 16 -10 -2 -22 -4 -26 -4 -5 -1 -7 -11 -5 -23
4 -29 60 -58 113 -58 80 0 135 63 100 116 -10 16 -35 29 -76 41 -44 12 -59 21
-57 32 4 22 42 26 58 6 12 -15 61 -21 73 -9 11 11 -12 43 -43 59 -34 18 -85
18 -120 2z"/>
</g>
</svg>
